<svg width="30" height="30" viewBox="0 0 30 30" fill="none" xmlns="http://www.w3.org/2000/svg">
<g clip-path="url(#clip0_2094_2005)">
<path d="M15 0C6.71601 0 0 6.71601 0 15C0 23.284 6.71601 30 15 30C23.284 30 30 23.284 30 15C30 6.71601 23.284 0 15 0Z" fill="#DE5E00"/>
<path d="M15 6C13.2552 6 11.8359 7.45445 11.8359 9.19922C11.8359 10.944 13.2552 12.3633 15 12.3633C16.7448 12.3633 18.1641 10.944 18.1641 9.19922C18.1641 7.45445 16.7448 6 15 6Z" fill="white"/>
<path d="M16.0548 12.3633H15.0001H13.9454C13.2016 12.3633 12.4828 12.5556 11.8293 12.8826C12.9392 13.1821 13.9842 13.6134 15.0001 14.1965C16.016 13.6134 17.061 13.1821 18.1708 12.8826C17.5174 12.5556 16.7986 12.3633 16.0548 12.3633Z" fill="white"/>
<path d="M22.9453 15.5273C22.3628 15.5273 21.8906 15.9995 21.8906 16.582V18.6914C21.8906 19.2738 22.3628 19.7461 22.9453 19.7461C23.5278 19.7461 24 19.2738 24 18.6914V16.582C24 15.9995 23.5278 15.5273 22.9453 15.5273Z" fill="white"/>
<path d="M7.05469 15.5273C6.47218 15.5273 6 15.9995 6 16.582V18.6914C6 19.2738 6.47218 19.7461 7.05469 19.7461C7.63719 19.7461 8.10938 19.2738 8.10938 18.6914V16.582C8.10938 15.9995 7.63719 15.5273 7.05469 15.5273Z" fill="white"/>
<path d="M7.58203 13.418C7.29055 13.418 7.05469 13.6538 7.05469 13.9453V14.4727C8.21804 14.4727 9.16406 15.4187 9.16406 16.582V18.6914C9.16406 19.8548 8.21804 20.8008 7.05469 20.8008V21.3281C7.05469 21.6196 7.29055 21.8555 7.58203 21.8555C10.2856 21.8555 12.4473 22.7093 14.4727 24V15.1264C12.4382 13.9599 10.2505 13.418 7.58203 13.418Z" fill="white"/>
<path d="M22.9453 14.4727V13.9453C22.9453 13.6538 22.7094 13.418 22.418 13.418C19.7495 13.418 17.5618 13.9599 15.5273 15.1264V24C17.5527 22.7093 19.7144 21.8555 22.418 21.8555C22.7094 21.8555 22.9453 21.6196 22.9453 21.3281V20.8008C21.782 20.8008 20.8359 19.8548 20.8359 18.6914V16.582C20.8359 15.4187 21.782 14.4727 22.9453 14.4727Z" fill="white"/>
</g>
<defs>
<clipPath id="clip0_2094_2005">
<rect width="30" height="30" fill="white"/>
</clipPath>
</defs>
</svg>
