<svg width="18" height="18" viewBox="0 0 18 18" fill="none" xmlns="http://www.w3.org/2000/svg">
<g clip-path="url(#clip0_2111_4628)">
<path d="M10.798 1.23567L7.13936 4.89424C7.13229 4.90127 7.1279 4.90982 7.12087 4.91692C8.02217 4.78564 8.94808 4.87564 9.80638 5.21033L12.2895 2.72725C13.1121 1.90462 14.45 1.90462 15.2726 2.72725C16.0952 3.5498 16.0952 4.88774 15.2726 5.71029C15.1323 5.85063 11.4025 9.58047 11.614 9.36886C10.7849 10.1981 9.42462 10.1626 8.6309 9.36886C8.21982 8.95778 7.55051 8.95778 7.13936 9.36886L6.49902 10.0092C6.67663 10.311 6.88026 10.6014 7.13936 10.8605C8.7017 12.4228 11.3909 12.5476 13.0829 10.879C13.09 10.8719 13.0985 10.8675 13.1056 10.8605L16.7642 7.2019C18.4116 5.55434 18.4116 2.88323 16.7642 1.23567C15.1166 -0.411891 12.4455 -0.411891 10.798 1.23567Z" fill="#FFDD00"/>
<path d="M8.2014 12.7817L5.7103 15.2728C4.88775 16.0954 3.54981 16.0954 2.72725 15.2728C1.90463 14.4502 1.90463 13.1123 2.72725 12.2897C2.86753 12.1494 6.60534 8.41158 6.39381 8.62311C7.22293 7.79399 8.5832 7.82939 9.37692 8.62311C9.788 9.03427 10.4573 9.03427 10.8685 8.62311L11.5088 7.98278C11.3312 7.681 11.1276 7.39061 10.8685 7.13157C9.3091 5.57215 6.62183 5.43947 4.92491 7.11305C4.91784 7.12008 4.90933 7.12451 4.90223 7.13157L1.23565 10.7982C-0.411847 12.4457 -0.411917 15.1168 1.23565 16.7644C2.88321 18.4119 5.55438 18.4119 7.20187 16.7644L10.8684 13.0978C10.8755 13.0907 10.8799 13.0823 10.8869 13.0751C9.98561 13.2064 9.05974 13.1164 8.2014 12.7817Z" fill="#FFDD00"/>
</g>
<defs>
<clipPath id="clip0_2111_4628">
<rect width="18" height="18" fill="white"/>
</clipPath>
</defs>
</svg>
