<svg width="20" height="20" viewBox="0 0 20 20" fill="none" xmlns="http://www.w3.org/2000/svg">
<path d="M14.1665 18.3333C13.4721 18.3333 12.8818 18.0903 12.3957 17.6042C11.9096 17.1181 11.6665 16.5278 11.6665 15.8333C11.6665 15.75 11.6873 15.5556 11.729 15.25L5.87484 11.8333C5.65262 12.0417 5.39567 12.205 5.104 12.3233C4.81234 12.4417 4.49984 12.5006 4.1665 12.5C3.47206 12.5 2.88178 12.2569 2.39567 11.7708C1.90956 11.2847 1.6665 10.6944 1.6665 10C1.6665 9.30556 1.90956 8.71528 2.39567 8.22917C2.88178 7.74306 3.47206 7.5 4.1665 7.5C4.49984 7.5 4.81234 7.55917 5.104 7.6775C5.39567 7.79584 5.65262 7.95889 5.87484 8.16667L11.729 4.75C11.7012 4.65278 11.684 4.55917 11.6773 4.46917C11.6707 4.37917 11.6671 4.27834 11.6665 4.16667C11.6665 3.47223 11.9096 2.88195 12.3957 2.39584C12.8818 1.90973 13.4721 1.66667 14.1665 1.66667C14.8609 1.66667 15.4512 1.90973 15.9373 2.39584C16.4234 2.88195 16.6665 3.47223 16.6665 4.16667C16.6665 4.86112 16.4234 5.45139 15.9373 5.9375C15.4512 6.42362 14.8609 6.66667 14.1665 6.66667C13.8332 6.66667 13.5207 6.6075 13.229 6.48917C12.9373 6.37084 12.6804 6.20778 12.4582 6L6.604 9.41667C6.63178 9.51389 6.64928 9.60778 6.6565 9.69834C6.66373 9.78889 6.66706 9.88945 6.6665 10C6.66595 10.1106 6.66261 10.2114 6.6565 10.3025C6.65039 10.3936 6.63289 10.4872 6.604 10.5833L12.4582 14C12.6804 13.7917 12.9373 13.6286 13.229 13.5108C13.5207 13.3931 13.8332 13.3339 14.1665 13.3333C14.8609 13.3333 15.4512 13.5764 15.9373 14.0625C16.4234 14.5486 16.6665 15.1389 16.6665 15.8333C16.6665 16.5278 16.4234 17.1181 15.9373 17.6042C15.4512 18.0903 14.8609 18.3333 14.1665 18.3333Z" fill="white"/>
</svg>
