<svg width="50" height="50" viewBox="0 0 50 50" fill="none" xmlns="http://www.w3.org/2000/svg">
<path d="M39.1209 25.9766C33.1223 25.9766 28.2422 30.8567 28.2422 36.8553C28.2422 42.8539 33.1223 47.7345 39.1209 47.7345C45.1196 47.7345 49.9997 42.8543 49.9997 36.8553C49.9997 30.8567 45.1192 25.9766 39.1209 25.9766ZM42.2589 38.3202H40.5858V39.9933C40.5858 40.8024 39.93 41.4581 39.1209 41.4581C38.3118 41.4581 37.6561 40.8024 37.6561 39.9933V38.3202H35.983C35.1739 38.3202 34.5181 37.6644 34.5181 36.8553C34.5181 36.0466 35.1739 35.3905 35.983 35.3905H37.6561V33.7173C37.6561 32.9086 38.3118 32.2525 39.1209 32.2525C39.93 32.2525 40.5858 32.9086 40.5858 33.7173V35.3905H42.2589C43.068 35.3905 43.7238 36.0466 43.7238 36.8553C43.7238 37.6644 43.068 38.3202 42.2589 38.3202Z" fill="url(#paint0_linear_2136_4645)"/>
<path d="M15.5862 24.1993C21.5848 24.1993 26.4649 19.3188 26.4649 13.3202C26.4649 7.32155 21.5844 2.44141 15.5862 2.44141C9.58755 2.44141 4.70703 7.32155 4.70703 13.3202C4.70703 19.3192 9.58755 24.1993 15.5862 24.1993Z" fill="url(#paint1_linear_2136_4645)"/>
<path d="M28.4622 28.0861C27.3617 26.4751 25.9674 25.0789 24.3565 23.978C21.97 25.9456 18.9137 27.129 15.5861 27.129C12.2585 27.129 9.20219 25.9456 6.81534 23.978C2.70424 26.7872 0 31.5113 0 36.8553V42.3469C0 45.3178 2.41661 47.7344 5.38712 47.7344H25.7843C27.095 47.7344 28.2974 47.2637 29.2324 46.4828C26.8085 43.9934 25.3124 40.596 25.3124 36.8553C25.3124 33.5285 26.4954 30.4725 28.4622 28.0861Z" fill="url(#paint2_linear_2136_4645)"/>
<defs>
<linearGradient id="paint0_linear_2136_4645" x1="39.1209" y1="25.9766" x2="39.1209" y2="47.7345" gradientUnits="userSpaceOnUse">
<stop stop-color="#FFDD00"/>
<stop offset="1" stop-color="#D77502"/>
</linearGradient>
<linearGradient id="paint1_linear_2136_4645" x1="15.586" y1="2.44141" x2="15.586" y2="24.1993" gradientUnits="userSpaceOnUse">
<stop stop-color="#FFDD00"/>
<stop offset="1" stop-color="#D77502"/>
</linearGradient>
<linearGradient id="paint2_linear_2136_4645" x1="14.6162" y1="23.978" x2="14.6162" y2="47.7344" gradientUnits="userSpaceOnUse">
<stop stop-color="#FFDD00"/>
<stop offset="1" stop-color="#D77502"/>
</linearGradient>
</defs>
</svg>
