<svg width="20" height="20" viewBox="0 0 20 20" fill="none" xmlns="http://www.w3.org/2000/svg">
<path d="M9.1665 16.25H13.9165C13.67 16.8659 13.2444 17.3937 12.6947 17.7651C12.145 18.1365 11.4965 18.3345 10.8331 18.3333H4.99982C4.56205 18.3335 4.12854 18.2473 3.72407 18.0798C3.3196 17.9124 2.95209 17.6668 2.64254 17.3573C2.33298 17.0477 2.08746 16.6802 1.91999 16.2758C1.75252 15.8713 1.66638 15.4378 1.6665 15V8.33333C1.66749 7.5216 1.96412 6.73803 2.50092 6.12915C3.03773 5.52026 3.77794 5.12776 4.58314 5.02505V11.6667C4.58314 14.1917 6.64147 16.25 9.1665 16.25ZM16.2498 5.20833H18.0165C17.9653 5.13322 17.9066 5.06344 17.8415 5.00001L14.9998 2.15821C14.9385 2.09333 14.8683 2.03733 14.7915 1.9918V3.75001C14.7933 4.13621 14.9476 4.50607 15.2207 4.77916C15.4938 5.05225 15.8636 5.20649 16.2498 5.20833ZM16.2498 6.45833C15.532 6.45694 14.8439 6.17116 14.3363 5.66355C13.8287 5.15594 13.5429 4.46787 13.5415 3.75001V1.66669H9.1665C8.72873 1.66656 8.29522 1.7527 7.89075 1.92017C7.48627 2.08764 7.11876 2.33317 6.8092 2.64272C6.49965 2.95227 6.25412 3.31978 6.08664 3.72425C5.91917 4.12873 5.83303 4.56223 5.83314 5.00001V11.6667C5.83303 12.1045 5.91917 12.538 6.08665 12.9424C6.25413 13.3469 6.49966 13.7144 6.80921 14.024C7.11877 14.3335 7.48628 14.579 7.89075 14.7465C8.29522 14.914 8.72873 15.0001 9.1665 15H14.9998C15.4376 15.0001 15.8711 14.914 16.2756 14.7465C16.68 14.579 17.0476 14.3335 17.3571 14.024C17.6667 13.7144 17.9122 13.3469 18.0797 12.9424C18.2471 12.538 18.3333 12.1045 18.3331 11.6667V6.45833H16.2498Z" fill="#F56800"/>
</svg>
