<svg width="30" height="30" viewBox="0 0 30 30" fill="none" xmlns="http://www.w3.org/2000/svg">
<g clip-path="url(#clip0_2094_2055)">
<path d="M15 30C23.2843 30 30 23.2843 30 15C30 6.71573 23.2843 0 15 0C6.71573 0 0 6.71573 0 15C0 23.2843 6.71573 30 15 30Z" fill="#FF0000"/>
<path d="M19.9085 9.35724H10.0914C9.69909 9.35724 9.31062 9.43454 8.94819 9.58474C8.58576 9.73493 8.25648 9.95507 7.97916 10.2326C7.70184 10.5101 7.48192 10.8395 7.33197 11.202C7.18201 11.5646 7.10497 11.9531 7.10523 12.3454V17.6546C7.10497 18.0469 7.18201 18.4354 7.33197 18.798C7.48192 19.1605 7.70184 19.4899 7.97916 19.7674C8.25648 20.0449 8.58576 20.2651 8.94819 20.4153C9.31062 20.5655 9.69909 20.6428 10.0914 20.6428H19.9085C20.3008 20.6428 20.6893 20.5655 21.0517 20.4153C21.4142 20.2651 21.7434 20.0449 22.0208 19.7674C22.2981 19.4899 22.518 19.1605 22.668 18.798C22.8179 18.4354 22.895 18.0469 22.8947 17.6546V12.3454C22.895 11.9531 22.8179 11.5646 22.668 11.202C22.518 10.8395 22.2981 10.5101 22.0208 10.2326C21.7434 9.95507 21.4142 9.73493 21.0517 9.58474C20.6893 9.43454 20.3008 9.35724 19.9085 9.35724ZM12.9197 17.4197V12.5803L17.0802 15L12.9197 17.4197Z" fill="white"/>
</g>
<defs>
<clipPath id="clip0_2094_2055">
<rect width="30" height="30" fill="white"/>
</clipPath>
</defs>
</svg>
